<svg id="圖層_1" data-name="圖層 1" xmlns="http://www.w3.org/2000/svg" width="100" height="100" viewBox="0 0 100 100"><defs><style>.cls-1{opacity:0.5;}.cls-2{fill:#0a5353;}.cls-3,.cls-4{fill:none;stroke:#4c4c4c;stroke-linecap:round;stroke-width:0.25px;}.cls-3{stroke-miterlimit:10;}.cls-4{stroke-linejoin:round;}</style></defs><title>new_shuang_logo</title><g class="cls-1"><path class="cls-2" d="M3.9,50.34A36.68,36.68,0,0,0,17.3,78.65V22A36.68,36.68,0,0,0,3.9,50.34Z"/></g><path class="cls-2" d="M27.4,71.39a5.47,5.47,0,0,1-4.14-1.74.3.3,0,0,1-.11-.23.34.34,0,0,1,.11-.25.28.28,0,0,1,.22-.09.29.29,0,0,1,.22.11,5,5,0,0,0,3.7,1.57A3.82,3.82,0,0,0,29.89,70a2.46,2.46,0,0,0,.95-2,3,3,0,0,0-.14-.93,2.61,2.61,0,0,0-.33-.67,2.15,2.15,0,0,0-.55-.53,4.4,4.4,0,0,0-.64-.39l-.77-.37-2-.9-.73-.35a6.3,6.3,0,0,1-.69-.46,3.24,3.24,0,0,1-.66-.59,3.07,3.07,0,0,1-.42-.79,2.91,2.91,0,0,1-.18-1,2.79,2.79,0,0,1,1.06-2.27,4,4,0,0,1,2.66-.88,4.69,4.69,0,0,1,3.37,1.33.32.32,0,0,1,.09.23.33.33,0,0,1-.09.22.32.32,0,0,1-.21.08.3.3,0,0,1-.21-.07,4.17,4.17,0,0,0-2.95-1.16,3.37,3.37,0,0,0-2.19.67,2.17,2.17,0,0,0-.84,1.78,2.3,2.3,0,0,0,.17.88,2.59,2.59,0,0,0,.36.65,2.23,2.23,0,0,0,.57.5c.25.16.45.28.59.35a6.2,6.2,0,0,0,.6.28l2,.9A10.4,10.4,0,0,1,29.8,65a4.89,4.89,0,0,1,.85.66,2.64,2.64,0,0,1,.65,1,3.65,3.65,0,0,1,.21,1.3,3.1,3.1,0,0,1-1.14,2.48A4.41,4.41,0,0,1,27.4,71.39Z"/><path class="cls-2" d="M36.34,71.07a.33.33,0,0,1-.23.09.32.32,0,0,1-.23-.09.33.33,0,0,1-.1-.24V58.4a.3.3,0,0,1,.1-.24.29.29,0,0,1,.23-.1.36.36,0,0,1,.34.34v5.39a.06.06,0,0,0,.07.07h7.14c.05,0,.07,0,.07-.07V58.4a.3.3,0,0,1,.11-.24.33.33,0,0,1,.25-.1.29.29,0,0,1,.23.1.33.33,0,0,1,.1.24V70.83a.37.37,0,0,1-.1.24.32.32,0,0,1-.23.09.37.37,0,0,1-.25-.09.34.34,0,0,1-.11-.24V64.55c0-.06,0-.09-.07-.09H36.52s-.07,0-.07.09v6.28A.34.34,0,0,1,36.34,71.07Z"/><path class="cls-2" d="M55.34,71.25a5.15,5.15,0,0,1-1.27.14,5.21,5.21,0,0,1-1.27-.14,3.78,3.78,0,0,1-1.16-.5,3.19,3.19,0,0,1-1-.93A4.63,4.63,0,0,1,50,68.34a8.31,8.31,0,0,1-.24-2.1V58.4a.32.32,0,0,1,.09-.24.3.3,0,0,1,.23-.1.29.29,0,0,1,.23.1.33.33,0,0,1,.1.24v7.7a7.36,7.36,0,0,0,.3,2.24,3.48,3.48,0,0,0,.82,1.45,3.11,3.11,0,0,0,1.15.74,4,4,0,0,0,1.36.23,4.17,4.17,0,0,0,1.41-.23,3.13,3.13,0,0,0,2-2.19,7.06,7.06,0,0,0,.3-2.24V58.38a.29.29,0,0,1,.1-.23.33.33,0,0,1,.23-.09.32.32,0,0,1,.23.09.29.29,0,0,1,.1.23v7.86a8.28,8.28,0,0,1-.25,2.1,4.43,4.43,0,0,1-.66,1.48,3.54,3.54,0,0,1-1,.93A3.93,3.93,0,0,1,55.34,71.25Z"/><path class="cls-2" d="M71.18,71.16a.46.46,0,0,1-.47-.33l-1.48-4.25a.11.11,0,0,0-.11-.07H64c-.06,0-.09,0-.1.07l-1.52,4.27a.42.42,0,0,1-.44.31.21.21,0,0,1-.19-.1.19.19,0,0,1,0-.12.29.29,0,0,1,0-.09l4.46-12.53a.37.37,0,0,1,.39-.26.4.4,0,0,1,.4.26l4.48,12.51s0,0,0,.09a.24.24,0,0,1-.06.14A.22.22,0,0,1,71.18,71.16Zm-7.07-5.31c0,.05,0,.07.06.07h4.76s.06,0,0-.07l-.88-2.54c-.6-1.71-1.09-3.23-1.48-4.54a.05.05,0,0,0-.06,0,.05.05,0,0,0,0,0c-.33,1.1-.83,2.62-1.5,4.54Z"/><path class="cls-2" d="M75.7,71.08a.29.29,0,0,1-.22.08.32.32,0,0,1-.23-.08.36.36,0,0,1-.09-.23V58.41a.33.33,0,0,1,.11-.25.3.3,0,0,1,.25-.1.57.57,0,0,1,.53.3l5.59,9.24,1.48,2.54s0,0,.06,0,0,0,0,0c-.07-1.25-.11-2.46-.11-3.65V58.38a.29.29,0,0,1,.1-.23.32.32,0,0,1,.55.23V70.81a.33.33,0,0,1-.1.25.35.35,0,0,1-.25.1.57.57,0,0,1-.54-.31l-5.6-9.25-1.46-2.54s0,0-.07,0,0,0,0,0c.05,1.62.08,2.81.08,3.57v8.22A.32.32,0,0,1,75.7,71.08Z"/><path class="cls-2" d="M93.83,71.39a4.93,4.93,0,0,1-4-1.86,7.61,7.61,0,0,1-1.51-5,7.28,7.28,0,0,1,1.57-4.92A5.2,5.2,0,0,1,94,57.82a4.58,4.58,0,0,1,3.3,1.33.36.36,0,0,1,.09.23.39.39,0,0,1-.09.22.32.32,0,0,1-.21.08.33.33,0,0,1-.22-.08A4,4,0,0,0,94,58.45a4.51,4.51,0,0,0-3.68,1.65A6.85,6.85,0,0,0,89,64.57a7.14,7.14,0,0,0,1.31,4.51,4.28,4.28,0,0,0,3.58,1.68,5.45,5.45,0,0,0,1.73-.27,3.31,3.31,0,0,0,1.3-.72.13.13,0,0,0,0-.12V65.5c0-.06,0-.08-.07-.08H94a.29.29,0,0,1-.21-.09.26.26,0,0,1-.09-.22.22.22,0,0,1,.09-.2.29.29,0,0,1,.21-.08h3a.6.6,0,0,1,.44.18.56.56,0,0,1,.19.44v3.86a1.24,1.24,0,0,1-.46,1A5.3,5.3,0,0,1,93.83,71.39Z"/><path class="cls-3" d="M77.51,50.18A36.9,36.9,0,1,0,66.2,76.9"/><path class="cls-4" d="M87.18,44.11A32.49,32.49,0,0,0,31.69,52.9a23.86,23.86,0,0,0-30.19,13"/></svg>